<?xml version="1.0" encoding="UTF-8" standalone="no"?>
<!DOCTYPE svg PUBLIC "-//W3C//DTD SVG 1.1//EN"
 "http://www.w3.org/Graphics/SVG/1.1/DTD/svg11.dtd">
<!-- Generated by graphviz version 2.28.0 (20120524.1247)
 -->
<!-- Title: Imports Pages: 1 -->
<svg width="922pt" height="922pt"
 viewBox="0.00 0.00 922.00 922.00" xmlns="http://www.w3.org/2000/svg" xmlns:xlink="http://www.w3.org/1999/xlink">
<g id="graph1" class="graph" transform="scale(0.46425 0.46425) rotate(0) translate(4 1982)">
<title>Imports</title>
<polygon fill="white" stroke="white" points="-4,5 -4,-1982 1983,-1982 1983,5 -4,5"/>
<!-- github.com/BurntSushi/xgb -->
<g id="node1" class="node"><title>github.com/BurntSushi/xgb</title>
<ellipse fill="none" stroke="black" cx="1669" cy="-884.679" rx="108.581" ry="18"/>
<text text-anchor="middle" x="1669" y="-880.979" font-family="Times,serif" font-size="14.00">github.com/BurntSushi/xgb</text>
</g>
<!-- encoding/binary -->
<g id="node3" class="node"><title>encoding/binary</title>
<ellipse fill="none" stroke="black" cx="1910" cy="-732.679" rx="67.6881" ry="18"/>
<text text-anchor="middle" x="1910" y="-728.979" font-family="Times,serif" font-size="14.00">encoding/binary</text>
</g>
<!-- github.com/BurntSushi/xgb&#45;&gt;encoding/binary -->
<g id="edge2" class="edge"><title>github.com/BurntSushi/xgb&#45;&gt;encoding/binary</title>
<path fill="none" stroke="black" d="M1697.42,-867.243C1741.16,-839.42 1826.69,-785.028 1874.52,-754.608"/>
<polygon fill="black" stroke="black" points="1876.43,-757.539 1882.99,-749.219 1872.68,-751.632 1876.43,-757.539"/>
</g>
<!-- errors -->
<g id="node5" class="node"><title>errors</title>
<ellipse fill="none" stroke="black" cx="1910" cy="-654.679" rx="31.3957" ry="18"/>
<text text-anchor="middle" x="1910" y="-650.979" font-family="Times,serif" font-size="14.00">errors</text>
</g>
<!-- github.com/BurntSushi/xgb&#45;&gt;errors -->
<g id="edge4" class="edge"><title>github.com/BurntSushi/xgb&#45;&gt;errors</title>
<path fill="none" stroke="black" d="M1685.52,-866.774C1714.71,-833.514 1780.39,-760.593 1842,-705.679 1854.32,-694.694 1868.81,-683.476 1881.16,-674.368"/>
<polygon fill="black" stroke="black" points="1883.29,-677.146 1889.31,-668.428 1879.17,-671.488 1883.29,-677.146"/>
</g>
<!-- fmt -->
<g id="node7" class="node"><title>fmt</title>
<ellipse fill="none" stroke="black" cx="1910" cy="-1042.68" rx="27" ry="18"/>
<text text-anchor="middle" x="1910" y="-1038.98" font-family="Times,serif" font-size="14.00">fmt</text>
</g>
<!-- github.com/BurntSushi/xgb&#45;&gt;fmt -->
<g id="edge6" class="edge"><title>github.com/BurntSushi/xgb&#45;&gt;fmt</title>
<path fill="none" stroke="black" d="M1696.49,-902.191C1742.18,-932.397 1835.34,-993.986 1881.63,-1024.59"/>
<polygon fill="black" stroke="black" points="1879.97,-1027.68 1890.24,-1030.28 1883.83,-1021.84 1879.97,-1027.68"/>
</g>
<!-- io -->
<g id="node9" class="node"><title>io</title>
<ellipse fill="none" stroke="black" cx="1910" cy="-577.679" rx="27" ry="18"/>
<text text-anchor="middle" x="1910" y="-573.979" font-family="Times,serif" font-size="14.00">io</text>
</g>
<!-- github.com/BurntSushi/xgb&#45;&gt;io -->
<g id="edge8" class="edge"><title>github.com/BurntSushi/xgb&#45;&gt;io</title>
<path fill="none" stroke="black" d="M1679.24,-866.681C1702.45,-822.567 1766.75,-706.891 1842,-627.679 1853.53,-615.538 1868.28,-604.185 1881,-595.375"/>
<polygon fill="black" stroke="black" points="1883.08,-598.194 1889.42,-589.704 1879.17,-592.389 1883.08,-598.194"/>
</g>
<!-- log -->
<g id="node11" class="node"><title>log</title>
<ellipse fill="none" stroke="black" cx="1910" cy="-965.679" rx="27" ry="18"/>
<text text-anchor="middle" x="1910" y="-961.979" font-family="Times,serif" font-size="14.00">log</text>
</g>
<!-- github.com/BurntSushi/xgb&#45;&gt;log -->
<g id="edge10" class="edge"><title>github.com/BurntSushi/xgb&#45;&gt;log</title>
<path fill="none" stroke="black" d="M1717.79,-900.876C1764.73,-916.785 1835.1,-940.633 1876.1,-954.527"/>
<polygon fill="black" stroke="black" points="1875.01,-957.856 1885.61,-957.751 1877.26,-951.227 1875.01,-957.856"/>
</g>
<!-- net -->
<g id="node13" class="node"><title>net</title>
<ellipse fill="none" stroke="black" cx="1910" cy="-499.679" rx="27" ry="18"/>
<text text-anchor="middle" x="1910" y="-495.979" font-family="Times,serif" font-size="14.00">net</text>
</g>
<!-- github.com/BurntSushi/xgb&#45;&gt;net -->
<g id="edge12" class="edge"><title>github.com/BurntSushi/xgb&#45;&gt;net</title>
<path fill="none" stroke="black" d="M1676.14,-866.368C1694.63,-813.148 1753.99,-655.627 1842,-550.679 1852.91,-537.665 1867.72,-525.959 1880.64,-517.054"/>
<polygon fill="black" stroke="black" points="1882.82,-519.806 1889.21,-511.355 1878.95,-513.977 1882.82,-519.806"/>
</g>
<!-- os -->
<g id="node15" class="node"><title>os</title>
<ellipse fill="none" stroke="black" cx="1910" cy="-887.679" rx="27" ry="18"/>
<text text-anchor="middle" x="1910" y="-883.979" font-family="Times,serif" font-size="14.00">os</text>
</g>
<!-- github.com/BurntSushi/xgb&#45;&gt;os -->
<g id="edge14" class="edge"><title>github.com/BurntSushi/xgb&#45;&gt;os</title>
<path fill="none" stroke="black" d="M1777.27,-886.025C1811.36,-886.453 1846.8,-886.898 1872.32,-887.219"/>
<polygon fill="black" stroke="black" points="1872.57,-890.722 1882.62,-887.348 1872.66,-883.723 1872.57,-890.722"/>
</g>
<!-- strconv -->
<g id="node17" class="node"><title>strconv</title>
<ellipse fill="none" stroke="black" cx="1910" cy="-1197.68" rx="36.2938" ry="18"/>
<text text-anchor="middle" x="1910" y="-1193.98" font-family="Times,serif" font-size="14.00">strconv</text>
</g>
<!-- github.com/BurntSushi/xgb&#45;&gt;strconv -->
<g id="edge16" class="edge"><title>github.com/BurntSushi/xgb&#45;&gt;strconv</title>
<path fill="none" stroke="black" d="M1678.97,-902.786C1701.81,-947.726 1765.78,-1066.58 1842,-1147.68 1852.64,-1159 1866.09,-1169.59 1878.15,-1178.09"/>
<polygon fill="black" stroke="black" points="1876.39,-1181.13 1886.62,-1183.88 1880.34,-1175.35 1876.39,-1181.13"/>
</g>
<!-- strings -->
<g id="node19" class="node"><title>strings</title>
<ellipse fill="none" stroke="black" cx="1910" cy="-1120.68" rx="34.394" ry="18"/>
<text text-anchor="middle" x="1910" y="-1116.98" font-family="Times,serif" font-size="14.00">strings</text>
</g>
<!-- github.com/BurntSushi/xgb&#45;&gt;strings -->
<g id="edge18" class="edge"><title>github.com/BurntSushi/xgb&#45;&gt;strings</title>
<path fill="none" stroke="black" d="M1684.95,-902.716C1713.71,-936.952 1779.44,-1012.99 1842,-1069.68 1853.85,-1080.42 1867.82,-1091.3 1879.92,-1100.23"/>
<polygon fill="black" stroke="black" points="1878.2,-1103.31 1888.35,-1106.37 1882.32,-1097.65 1878.2,-1103.31"/>
</g>
<!-- sync -->
<g id="node21" class="node"><title>sync</title>
<ellipse fill="none" stroke="black" cx="1910" cy="-809.679" rx="27" ry="18"/>
<text text-anchor="middle" x="1910" y="-805.979" font-family="Times,serif" font-size="14.00">sync</text>
</g>
<!-- github.com/BurntSushi/xgb&#45;&gt;sync -->
<g id="edge20" class="edge"><title>github.com/BurntSushi/xgb&#45;&gt;sync</title>
<path fill="none" stroke="black" d="M1720.69,-868.773C1767.42,-854.107 1835.47,-832.755 1875.68,-820.134"/>
<polygon fill="black" stroke="black" points="1876.79,-823.457 1885.28,-817.123 1874.69,-816.778 1876.79,-823.457"/>
</g>
<!-- github.com/BurntSushi/xgb/bigreq -->
<g id="node22" class="node"><title>github.com/BurntSushi/xgb/bigreq</title>
<ellipse fill="none" stroke="black" cx="979" cy="-1499.68" rx="133.776" ry="18"/>
<text text-anchor="middle" x="979" y="-1495.98" font-family="Times,serif" font-size="14.00">github.com/BurntSushi/xgb/bigreq</text>
</g>
<!-- github.com/BurntSushi/xgb/xproto -->
<g id="node24" class="node"><title>github.com/BurntSushi/xgb/xproto</title>
<ellipse fill="none" stroke="black" cx="1362" cy="-884.679" rx="133.776" ry="18"/>
<text text-anchor="middle" x="1362" y="-880.979" font-family="Times,serif" font-size="14.00">github.com/BurntSushi/xgb/xproto</text>
</g>
<!-- github.com/BurntSushi/xgb/bigreq&#45;&gt;github.com/BurntSushi/xgb/xproto -->
<g id="edge22" class="edge"><title>github.com/BurntSushi/xgb/bigreq&#45;&gt;github.com/BurntSushi/xgb/xproto</title>
<path fill="none" stroke="black" d="M1101.71,-1492.45C1134.45,-1485.06 1167.53,-1471.84 1192,-1448.68 1350.91,-1298.28 1362.23,-1005.09 1361.67,-913.036"/>
<polygon fill="black" stroke="black" points="1365.17,-912.789 1361.56,-902.83 1358.17,-912.87 1365.17,-912.789"/>
</g>
<!-- github.com/BurntSushi/xgb/xproto&#45;&gt;github.com/BurntSushi/xgb -->
<g id="edge24" class="edge"><title>github.com/BurntSushi/xgb/xproto&#45;&gt;github.com/BurntSushi/xgb</title>
<path fill="none" stroke="black" d="M1495.89,-884.679C1513.87,-884.679 1532.22,-884.679 1549.92,-884.679"/>
<polygon fill="black" stroke="black" points="1550.26,-888.179 1560.26,-884.679 1550.26,-881.179 1550.26,-888.179"/>
</g>
<!-- github.com/BurntSushi/xgb/composite -->
<g id="node26" class="node"><title>github.com/BurntSushi/xgb/composite</title>
<ellipse fill="none" stroke="black" cx="166" cy="-1499.68" rx="147.574" ry="18"/>
<text text-anchor="middle" x="166" y="-1495.98" font-family="Times,serif" font-size="14.00">github.com/BurntSushi/xgb/composite</text>
</g>
<!-- github.com/BurntSushi/xgb/xfixes -->
<g id="node28" class="node"><title>github.com/BurntSushi/xgb/xfixes</title>
<ellipse fill="none" stroke="black" cx="549" cy="-1421.68" rx="132.677" ry="18"/>
<text text-anchor="middle" x="549" y="-1417.98" font-family="Times,serif" font-size="14.00">github.com/BurntSushi/xgb/xfixes</text>
</g>
<!-- github.com/BurntSushi/xgb/composite&#45;&gt;github.com/BurntSushi/xgb/xfixes -->
<g id="edge26" class="edge"><title>github.com/BurntSushi/xgb/composite&#45;&gt;github.com/BurntSushi/xgb/xfixes</title>
<path fill="none" stroke="black" d="M242.273,-1484.27C306.425,-1471.14 398.503,-1452.28 464.822,-1438.71"/>
<polygon fill="black" stroke="black" points="465.73,-1442.09 474.825,-1436.66 464.326,-1435.24 465.73,-1442.09"/>
</g>
<!-- github.com/BurntSushi/xgb/render -->
<g id="node30" class="node"><title>github.com/BurntSushi/xgb/render</title>
<ellipse fill="none" stroke="black" cx="979" cy="-1344.68" rx="133.776" ry="18"/>
<text text-anchor="middle" x="979" y="-1340.98" font-family="Times,serif" font-size="14.00">github.com/BurntSushi/xgb/render</text>
</g>
<!-- github.com/BurntSushi/xgb/xfixes&#45;&gt;github.com/BurntSushi/xgb/render -->
<g id="edge28" class="edge"><title>github.com/BurntSushi/xgb/xfixes&#45;&gt;github.com/BurntSushi/xgb/render</title>
<path fill="none" stroke="black" d="M629.5,-1407.38C702.841,-1394.18 811.626,-1374.61 888.101,-1360.85"/>
<polygon fill="black" stroke="black" points="888.978,-1364.25 898.2,-1359.04 887.739,-1357.36 888.978,-1364.25"/>
</g>
<!-- github.com/BurntSushi/xgb/shape -->
<g id="node32" class="node"><title>github.com/BurntSushi/xgb/shape</title>
<ellipse fill="none" stroke="black" cx="979" cy="-1421.68" rx="131.077" ry="18"/>
<text text-anchor="middle" x="979" y="-1417.98" font-family="Times,serif" font-size="14.00">github.com/BurntSushi/xgb/shape</text>
</g>
<!-- github.com/BurntSushi/xgb/xfixes&#45;&gt;github.com/BurntSushi/xgb/shape -->
<g id="edge30" class="edge"><title>github.com/BurntSushi/xgb/xfixes&#45;&gt;github.com/BurntSushi/xgb/shape</title>
<path fill="none" stroke="black" d="M681.615,-1421.68C730.915,-1421.68 787.1,-1421.68 837.199,-1421.68"/>
<polygon fill="black" stroke="black" points="837.463,-1425.18 847.463,-1421.68 837.463,-1418.18 837.463,-1425.18"/>
</g>
<!-- github.com/BurntSushi/xgb/render&#45;&gt;github.com/BurntSushi/xgb/xproto -->
<g id="edge32" class="edge"><title>github.com/BurntSushi/xgb/render&#45;&gt;github.com/BurntSushi/xgb/xproto</title>
<path fill="none" stroke="black" d="M1098.05,-1336.33C1131.46,-1328.99 1165.82,-1316.07 1192,-1293.68 1312.76,-1190.4 1348.71,-987.033 1358.06,-912.72"/>
<polygon fill="black" stroke="black" points="1361.54,-913.063 1359.25,-902.719 1354.59,-912.234 1361.54,-913.063"/>
</g>
<!-- github.com/BurntSushi/xgb/shape&#45;&gt;github.com/BurntSushi/xgb/xproto -->
<g id="edge34" class="edge"><title>github.com/BurntSushi/xgb/shape&#45;&gt;github.com/BurntSushi/xgb/xproto</title>
<path fill="none" stroke="black" d="M1099.95,-1414.64C1133.03,-1407.43 1166.73,-1394.48 1192,-1371.68 1332.03,-1245.3 1356.04,-996.925 1360.15,-913.088"/>
<polygon fill="black" stroke="black" points="1363.65,-913.178 1360.59,-903.036 1356.66,-912.876 1363.65,-913.178"/>
</g>
<!-- github.com/BurntSushi/xgb/damage -->
<g id="node35" class="node"><title>github.com/BurntSushi/xgb/damage</title>
<ellipse fill="none" stroke="black" cx="166" cy="-1421.68" rx="139.175" ry="18"/>
<text text-anchor="middle" x="166" y="-1417.98" font-family="Times,serif" font-size="14.00">github.com/BurntSushi/xgb/damage</text>
</g>
<!-- github.com/BurntSushi/xgb/damage&#45;&gt;github.com/BurntSushi/xgb/xfixes -->
<g id="edge36" class="edge"><title>github.com/BurntSushi/xgb/damage&#45;&gt;github.com/BurntSushi/xgb/xfixes</title>
<path fill="none" stroke="black" d="M305.088,-1421.68C337.898,-1421.68 372.956,-1421.68 405.939,-1421.68"/>
<polygon fill="black" stroke="black" points="406.104,-1425.18 416.104,-1421.68 406.104,-1418.18 406.104,-1425.18"/>
</g>
<!-- github.com/BurntSushi/xgb/dpms -->
<g id="node37" class="node"><title>github.com/BurntSushi/xgb/dpms</title>
<ellipse fill="none" stroke="black" cx="979" cy="-1266.68" rx="130.777" ry="18"/>
<text text-anchor="middle" x="979" y="-1262.98" font-family="Times,serif" font-size="14.00">github.com/BurntSushi/xgb/dpms</text>
</g>
<!-- github.com/BurntSushi/xgb/dpms&#45;&gt;github.com/BurntSushi/xgb/xproto -->
<g id="edge38" class="edge"><title>github.com/BurntSushi/xgb/dpms&#45;&gt;github.com/BurntSushi/xgb/xproto</title>
<path fill="none" stroke="black" d="M1094.48,-1258.16C1128.61,-1251.01 1164.27,-1238.46 1192,-1216.68 1294.39,-1136.26 1340.25,-977.043 1355.17,-912.666"/>
<polygon fill="black" stroke="black" points="1358.61,-913.35 1357.38,-902.826 1351.78,-911.816 1358.61,-913.35"/>
</g>
<!-- github.com/BurntSushi/xgb/dri2 -->
<g id="node39" class="node"><title>github.com/BurntSushi/xgb/dri2</title>
<ellipse fill="none" stroke="black" cx="979" cy="-1189.68" rx="125.378" ry="18"/>
<text text-anchor="middle" x="979" y="-1185.98" font-family="Times,serif" font-size="14.00">github.com/BurntSushi/xgb/dri2</text>
</g>
<!-- github.com/BurntSushi/xgb/dri2&#45;&gt;github.com/BurntSushi/xgb/xproto -->
<g id="edge40" class="edge"><title>github.com/BurntSushi/xgb/dri2&#45;&gt;github.com/BurntSushi/xgb/xproto</title>
<path fill="none" stroke="black" d="M1085.66,-1180.1C1121.83,-1172.89 1160.97,-1160.36 1192,-1138.68 1276.02,-1079.97 1329.59,-964.866 1350.73,-912.186"/>
<polygon fill="black" stroke="black" points="1354.01,-913.397 1354.41,-902.81 1347.5,-910.838 1354.01,-913.397"/>
</g>
<!-- github.com/BurntSushi/xgb/examples/atoms -->
<g id="node41" class="node"><title>github.com/BurntSushi/xgb/examples/atoms</title>
<ellipse fill="none" stroke="black" cx="979" cy="-1809.68" rx="168.97" ry="18"/>
<text text-anchor="middle" x="979" y="-1805.98" font-family="Times,serif" font-size="14.00">github.com/BurntSushi/xgb/examples/atoms</text>
</g>
<!-- github.com/BurntSushi/xgb/examples/atoms&#45;&gt;github.com/BurntSushi/xgb/xproto -->
<g id="edge42" class="edge"><title>github.com/BurntSushi/xgb/examples/atoms&#45;&gt;github.com/BurntSushi/xgb/xproto</title>
<path fill="none" stroke="black" d="M1121.36,-1799.92C1147.78,-1792.04 1173.01,-1779.46 1192,-1759.68 1313.01,-1633.62 1352.05,-1048.79 1359.56,-912.927"/>
<polygon fill="black" stroke="black" points="1363.06,-913.069 1360.1,-902.895 1356.07,-912.691 1363.06,-913.069"/>
</g>
<!-- flag -->
<g id="node44" class="node"><title>flag</title>
<ellipse fill="none" stroke="black" cx="1910" cy="-1740.68" rx="27" ry="18"/>
<text text-anchor="middle" x="1910" y="-1736.98" font-family="Times,serif" font-size="14.00">flag</text>
</g>
<!-- github.com/BurntSushi/xgb/examples/atoms&#45;&gt;flag -->
<g id="edge44" class="edge"><title>github.com/BurntSushi/xgb/examples/atoms&#45;&gt;flag</title>
<path fill="none" stroke="black" d="M1118.08,-1799.42C1336.39,-1783.21 1749.21,-1752.55 1873.02,-1743.35"/>
<polygon fill="black" stroke="black" points="1873.39,-1746.83 1883.1,-1742.6 1872.87,-1739.85 1873.39,-1746.83"/>
</g>
<!-- runtime -->
<g id="node46" class="node"><title>runtime</title>
<ellipse fill="none" stroke="black" cx="1362" cy="-1951.68" rx="38.1938" ry="18"/>
<text text-anchor="middle" x="1362" y="-1947.98" font-family="Times,serif" font-size="14.00">runtime</text>
</g>
<!-- github.com/BurntSushi/xgb/examples/atoms&#45;&gt;runtime -->
<g id="edge46" class="edge"><title>github.com/BurntSushi/xgb/examples/atoms&#45;&gt;runtime</title>
<path fill="none" stroke="black" d="M1026.72,-1827.09C1102.63,-1855.38 1251.37,-1910.82 1321.99,-1937.14"/>
<polygon fill="black" stroke="black" points="1320.83,-1940.44 1331.42,-1940.65 1323.27,-1933.88 1320.83,-1940.44"/>
</g>
<!-- runtime/pprof -->
<g id="node48" class="node"><title>runtime/pprof</title>
<ellipse fill="none" stroke="black" cx="1362" cy="-1874.68" rx="59.5901" ry="18"/>
<text text-anchor="middle" x="1362" y="-1870.98" font-family="Times,serif" font-size="14.00">runtime/pprof</text>
</g>
<!-- github.com/BurntSushi/xgb/examples/atoms&#45;&gt;runtime/pprof -->
<g id="edge48" class="edge"><title>github.com/BurntSushi/xgb/examples/atoms&#45;&gt;runtime/pprof</title>
<path fill="none" stroke="black" d="M1069.33,-1824.92C1140.17,-1837 1237.3,-1853.57 1299.61,-1864.21"/>
<polygon fill="black" stroke="black" points="1299.24,-1867.69 1309.68,-1865.92 1300.42,-1860.79 1299.24,-1867.69"/>
</g>
<!-- time -->
<g id="node50" class="node"><title>time</title>
<ellipse fill="none" stroke="black" cx="1910" cy="-1818.68" rx="27" ry="18"/>
<text text-anchor="middle" x="1910" y="-1814.98" font-family="Times,serif" font-size="14.00">time</text>
</g>
<!-- github.com/BurntSushi/xgb/examples/atoms&#45;&gt;time -->
<g id="edge50" class="edge"><title>github.com/BurntSushi/xgb/examples/atoms&#45;&gt;time</title>
<path fill="none" stroke="black" d="M1147.43,-1811.3C1371.36,-1813.47 1754,-1817.18 1872.76,-1818.33"/>
<polygon fill="black" stroke="black" points="1872.75,-1821.83 1882.78,-1818.42 1872.81,-1814.83 1872.75,-1821.83"/>
</g>
<!-- github.com/BurntSushi/xgb/examples/create&#45;window -->
<g id="node51" class="node"><title>github.com/BurntSushi/xgb/examples/create&#45;window</title>
<ellipse fill="none" stroke="black" cx="979" cy="-1111.68" rx="199.565" ry="18"/>
<text text-anchor="middle" x="979" y="-1107.98" font-family="Times,serif" font-size="14.00">github.com/BurntSushi/xgb/examples/create&#45;window</text>
</g>
<!-- github.com/BurntSushi/xgb/examples/create&#45;window&#45;&gt;github.com/BurntSushi/xgb/xproto -->
<g id="edge52" class="edge"><title>github.com/BurntSushi/xgb/examples/create&#45;window&#45;&gt;github.com/BurntSushi/xgb/xproto</title>
<path fill="none" stroke="black" d="M1095.39,-1097.02C1128.08,-1089.61 1162.71,-1078.45 1192,-1061.68 1259.01,-1023.3 1316.06,-950.2 1343.51,-911.024"/>
<polygon fill="black" stroke="black" points="1346.42,-912.966 1349.22,-902.747 1340.66,-908.989 1346.42,-912.966"/>
</g>
<!-- github.com/BurntSushi/xgb/examples/get&#45;active&#45;window -->
<g id="node53" class="node"><title>github.com/BurntSushi/xgb/examples/get&#45;active&#45;window</title>
<ellipse fill="none" stroke="black" cx="979" cy="-1034.68" rx="213.362" ry="18"/>
<text text-anchor="middle" x="979" y="-1030.98" font-family="Times,serif" font-size="14.00">github.com/BurntSushi/xgb/examples/get&#45;active&#45;window</text>
</g>
<!-- github.com/BurntSushi/xgb/examples/get&#45;active&#45;window&#45;&gt;github.com/BurntSushi/xgb/xproto -->
<g id="edge54" class="edge"><title>github.com/BurntSushi/xgb/examples/get&#45;active&#45;window&#45;&gt;github.com/BurntSushi/xgb/xproto</title>
<path fill="none" stroke="black" d="M1072.88,-1018.51C1110.62,-1010.37 1154.17,-998.922 1192,-983.679 1241.94,-963.557 1294.76,-930.45 1327.79,-908.12"/>
<polygon fill="black" stroke="black" points="1329.87,-910.939 1336.15,-902.409 1325.92,-905.158 1329.87,-910.939"/>
</g>
<!-- github.com/BurntSushi/xgb/examples/randr -->
<g id="node55" class="node"><title>github.com/BurntSushi/xgb/examples/randr</title>
<ellipse fill="none" stroke="black" cx="166" cy="-1344.68" rx="165.971" ry="18"/>
<text text-anchor="middle" x="166" y="-1340.98" font-family="Times,serif" font-size="14.00">github.com/BurntSushi/xgb/examples/randr</text>
</g>
<!-- github.com/BurntSushi/xgb/randr -->
<g id="node57" class="node"><title>github.com/BurntSushi/xgb/randr</title>
<ellipse fill="none" stroke="black" cx="549" cy="-1344.68" rx="129.977" ry="18"/>
<text text-anchor="middle" x="549" y="-1340.98" font-family="Times,serif" font-size="14.00">github.com/BurntSushi/xgb/randr</text>
</g>
<!-- github.com/BurntSushi/xgb/examples/randr&#45;&gt;github.com/BurntSushi/xgb/randr -->
<g id="edge56" class="edge"><title>github.com/BurntSushi/xgb/examples/randr&#45;&gt;github.com/BurntSushi/xgb/randr</title>
<path fill="none" stroke="black" d="M331.896,-1344.68C357.438,-1344.68 383.605,-1344.68 408.516,-1344.68"/>
<polygon fill="black" stroke="black" points="408.736,-1348.18 418.736,-1344.68 408.736,-1341.18 408.736,-1348.18"/>
</g>
<!-- github.com/BurntSushi/xgb/randr&#45;&gt;github.com/BurntSushi/xgb/render -->
<g id="edge58" class="edge"><title>github.com/BurntSushi/xgb/randr&#45;&gt;github.com/BurntSushi/xgb/render</title>
<path fill="none" stroke="black" d="M678.995,-1344.68C728.042,-1344.68 784.204,-1344.68 834.512,-1344.68"/>
<polygon fill="black" stroke="black" points="834.823,-1348.18 844.823,-1344.68 834.822,-1341.18 834.823,-1348.18"/>
</g>
<!-- github.com/BurntSushi/xgb/examples/xinerama -->
<g id="node59" class="node"><title>github.com/BurntSushi/xgb/examples/xinerama</title>
<ellipse fill="none" stroke="black" cx="549" cy="-956.679" rx="180.868" ry="18"/>
<text text-anchor="middle" x="549" y="-952.979" font-family="Times,serif" font-size="14.00">github.com/BurntSushi/xgb/examples/xinerama</text>
</g>
<!-- github.com/BurntSushi/xgb/xinerama -->
<g id="node61" class="node"><title>github.com/BurntSushi/xgb/xinerama</title>
<ellipse fill="none" stroke="black" cx="979" cy="-956.679" rx="144.075" ry="18"/>
<text text-anchor="middle" x="979" y="-952.979" font-family="Times,serif" font-size="14.00">github.com/BurntSushi/xgb/xinerama</text>
</g>
<!-- github.com/BurntSushi/xgb/examples/xinerama&#45;&gt;github.com/BurntSushi/xgb/xinerama -->
<g id="edge60" class="edge"><title>github.com/BurntSushi/xgb/examples/xinerama&#45;&gt;github.com/BurntSushi/xgb/xinerama</title>
<path fill="none" stroke="black" d="M729.96,-956.679C761.282,-956.679 793.603,-956.679 824.145,-956.679"/>
<polygon fill="black" stroke="black" points="824.43,-960.179 834.43,-956.679 824.43,-953.179 824.43,-960.179"/>
</g>
<!-- github.com/BurntSushi/xgb/xinerama&#45;&gt;github.com/BurntSushi/xgb/xproto -->
<g id="edge62" class="edge"><title>github.com/BurntSushi/xgb/xinerama&#45;&gt;github.com/BurntSushi/xgb/xproto</title>
<path fill="none" stroke="black" d="M1059.41,-941.673C1121.92,-929.859 1208.98,-913.408 1273.5,-901.215"/>
<polygon fill="black" stroke="black" points="1274.47,-904.592 1283.65,-899.296 1273.17,-897.714 1274.47,-904.592"/>
</g>
<!-- github.com/BurntSushi/xgb/ge -->
<g id="node63" class="node"><title>github.com/BurntSushi/xgb/ge</title>
<ellipse fill="none" stroke="black" cx="979" cy="-878.679" rx="119.679" ry="18"/>
<text text-anchor="middle" x="979" y="-874.979" font-family="Times,serif" font-size="14.00">github.com/BurntSushi/xgb/ge</text>
</g>
<!-- github.com/BurntSushi/xgb/ge&#45;&gt;github.com/BurntSushi/xgb/xproto -->
<g id="edge64" class="edge"><title>github.com/BurntSushi/xgb/ge&#45;&gt;github.com/BurntSushi/xgb/xproto</title>
<path fill="none" stroke="black" d="M1098.2,-880.54C1136.37,-881.142 1179.09,-881.814 1218.81,-882.44"/>
<polygon fill="black" stroke="black" points="1218.78,-885.94 1228.84,-882.598 1218.89,-878.941 1218.78,-885.94"/>
</g>
<!-- github.com/BurntSushi/xgb/glx -->
<g id="node65" class="node"><title>github.com/BurntSushi/xgb/glx</title>
<ellipse fill="none" stroke="black" cx="979" cy="-801.679" rx="122.379" ry="18"/>
<text text-anchor="middle" x="979" y="-797.979" font-family="Times,serif" font-size="14.00">github.com/BurntSushi/xgb/glx</text>
</g>
<!-- github.com/BurntSushi/xgb/glx&#45;&gt;github.com/BurntSushi/xgb/xproto -->
<g id="edge66" class="edge"><title>github.com/BurntSushi/xgb/glx&#45;&gt;github.com/BurntSushi/xgb/xproto</title>
<path fill="none" stroke="black" d="M1048.56,-816.614C1113.8,-830.826 1211.96,-852.211 1280.8,-867.208"/>
<polygon fill="black" stroke="black" points="1280.22,-870.664 1290.74,-869.373 1281.71,-863.824 1280.22,-870.664"/>
</g>
<!-- github.com/BurntSushi/xgb/record -->
<g id="node67" class="node"><title>github.com/BurntSushi/xgb/record</title>
<ellipse fill="none" stroke="black" cx="979" cy="-723.679" rx="133.776" ry="18"/>
<text text-anchor="middle" x="979" y="-719.979" font-family="Times,serif" font-size="14.00">github.com/BurntSushi/xgb/record</text>
</g>
<!-- github.com/BurntSushi/xgb/record&#45;&gt;github.com/BurntSushi/xgb/xproto -->
<g id="edge68" class="edge"><title>github.com/BurntSushi/xgb/record&#45;&gt;github.com/BurntSushi/xgb/xproto</title>
<path fill="none" stroke="black" d="M1065.96,-737.436C1105.38,-745.477 1152.1,-757.502 1192,-774.679 1244.39,-797.235 1298.55,-835.64 1331.01,-860.581"/>
<polygon fill="black" stroke="black" points="1329.13,-863.553 1339.17,-866.924 1333.42,-858.025 1329.13,-863.553"/>
</g>
<!-- github.com/BurntSushi/xgb/res -->
<g id="node69" class="node"><title>github.com/BurntSushi/xgb/res</title>
<ellipse fill="none" stroke="black" cx="979" cy="-646.679" rx="121.578" ry="18"/>
<text text-anchor="middle" x="979" y="-642.979" font-family="Times,serif" font-size="14.00">github.com/BurntSushi/xgb/res</text>
</g>
<!-- github.com/BurntSushi/xgb/res&#45;&gt;github.com/BurntSushi/xgb/xproto -->
<g id="edge70" class="edge"><title>github.com/BurntSushi/xgb/res&#45;&gt;github.com/BurntSushi/xgb/xproto</title>
<path fill="none" stroke="black" d="M1078.08,-657.11C1115.64,-664.268 1157.68,-676.336 1192,-696.679 1261.32,-737.77 1318.14,-816.63 1344.73,-857.942"/>
<polygon fill="black" stroke="black" points="1341.93,-860.062 1350.24,-866.638 1347.85,-856.317 1341.93,-860.062"/>
</g>
<!-- github.com/BurntSushi/xgb/screensaver -->
<g id="node71" class="node"><title>github.com/BurntSushi/xgb/screensaver</title>
<ellipse fill="none" stroke="black" cx="979" cy="-568.679" rx="152.173" ry="18"/>
<text text-anchor="middle" x="979" y="-564.979" font-family="Times,serif" font-size="14.00">github.com/BurntSushi/xgb/screensaver</text>
</g>
<!-- github.com/BurntSushi/xgb/screensaver&#45;&gt;github.com/BurntSushi/xgb/xproto -->
<g id="edge72" class="edge"><title>github.com/BurntSushi/xgb/screensaver&#45;&gt;github.com/BurntSushi/xgb/xproto</title>
<path fill="none" stroke="black" d="M1096.55,-580.182C1129.63,-587.65 1164.19,-599.84 1192,-619.679 1278.39,-681.299 1331.05,-802.219 1351.38,-856.788"/>
<polygon fill="black" stroke="black" points="1348.19,-858.279 1354.9,-866.479 1354.77,-855.885 1348.19,-858.279"/>
</g>
<!-- github.com/BurntSushi/xgb/shm -->
<g id="node73" class="node"><title>github.com/BurntSushi/xgb/shm</title>
<ellipse fill="none" stroke="black" cx="979" cy="-491.679" rx="126.178" ry="18"/>
<text text-anchor="middle" x="979" y="-487.979" font-family="Times,serif" font-size="14.00">github.com/BurntSushi/xgb/shm</text>
</g>
<!-- github.com/BurntSushi/xgb/shm&#45;&gt;github.com/BurntSushi/xgb/xproto -->
<g id="edge74" class="edge"><title>github.com/BurntSushi/xgb/shm&#45;&gt;github.com/BurntSushi/xgb/xproto</title>
<path fill="none" stroke="black" d="M1092.73,-499.585C1127.45,-506.652 1163.89,-519.305 1192,-541.679 1296.79,-625.097 1341.38,-790.09 1355.57,-856.252"/>
<polygon fill="black" stroke="black" points="1352.21,-857.27 1357.66,-866.352 1359.06,-855.85 1352.21,-857.27"/>
</g>
<!-- github.com/BurntSushi/xgb/sync -->
<g id="node75" class="node"><title>github.com/BurntSushi/xgb/sync</title>
<ellipse fill="none" stroke="black" cx="979" cy="-413.679" rx="127.277" ry="18"/>
<text text-anchor="middle" x="979" y="-409.979" font-family="Times,serif" font-size="14.00">github.com/BurntSushi/xgb/sync</text>
</g>
<!-- github.com/BurntSushi/xgb/sync&#45;&gt;github.com/BurntSushi/xgb/xproto -->
<g id="edge76" class="edge"><title>github.com/BurntSushi/xgb/sync&#45;&gt;github.com/BurntSushi/xgb/xproto</title>
<path fill="none" stroke="black" d="M1094.88,-421.165C1129.33,-428.373 1165.06,-441.426 1192,-464.679 1315.34,-571.154 1349.74,-780.601 1358.37,-856.428"/>
<polygon fill="black" stroke="black" points="1354.92,-857.049 1359.46,-866.618 1361.88,-856.302 1354.92,-857.049"/>
</g>
<!-- github.com/BurntSushi/xgb/xcmisc -->
<g id="node77" class="node"><title>github.com/BurntSushi/xgb/xcmisc</title>
<ellipse fill="none" stroke="black" cx="979" cy="-335.679" rx="136.476" ry="18"/>
<text text-anchor="middle" x="979" y="-331.979" font-family="Times,serif" font-size="14.00">github.com/BurntSushi/xgb/xcmisc</text>
</g>
<!-- github.com/BurntSushi/xgb/xcmisc&#45;&gt;github.com/BurntSushi/xgb/xproto -->
<g id="edge78" class="edge"><title>github.com/BurntSushi/xgb/xcmisc&#45;&gt;github.com/BurntSushi/xgb/xproto</title>
<path fill="none" stroke="black" d="M1101.73,-343.6C1134.28,-351.027 1167.26,-364.092 1192,-386.679 1334.44,-516.705 1356.88,-771.229 1360.37,-856.256"/>
<polygon fill="black" stroke="black" points="1356.88,-856.565 1360.73,-866.436 1363.88,-856.319 1356.88,-856.565"/>
</g>
<!-- github.com/BurntSushi/xgb/xevie -->
<g id="node79" class="node"><title>github.com/BurntSushi/xgb/xevie</title>
<ellipse fill="none" stroke="black" cx="979" cy="-258.679" rx="129.977" ry="18"/>
<text text-anchor="middle" x="979" y="-254.979" font-family="Times,serif" font-size="14.00">github.com/BurntSushi/xgb/xevie</text>
</g>
<!-- github.com/BurntSushi/xgb/xevie&#45;&gt;github.com/BurntSushi/xgb/xproto -->
<g id="edge80" class="edge"><title>github.com/BurntSushi/xgb/xevie&#45;&gt;github.com/BurntSushi/xgb/xproto</title>
<path fill="none" stroke="black" d="M1100.93,-265.015C1133.95,-272.213 1167.36,-285.334 1192,-308.679 1274.65,-386.999 1339.34,-751.288 1356.51,-856.287"/>
<polygon fill="black" stroke="black" points="1353.1,-857.124 1358.15,-866.436 1360.01,-856.005 1353.1,-857.124"/>
</g>
<!-- github.com/BurntSushi/xgb/xf86dri -->
<g id="node81" class="node"><title>github.com/BurntSushi/xgb/xf86dri</title>
<ellipse fill="none" stroke="black" cx="979" cy="-180.679" rx="137.276" ry="18"/>
<text text-anchor="middle" x="979" y="-176.979" font-family="Times,serif" font-size="14.00">github.com/BurntSushi/xgb/xf86dri</text>
</g>
<!-- github.com/BurntSushi/xgb/xf86dri&#45;&gt;github.com/BurntSushi/xgb/xproto -->
<g id="edge82" class="edge"><title>github.com/BurntSushi/xgb/xf86dri&#45;&gt;github.com/BurntSushi/xgb/xproto</title>
<path fill="none" stroke="black" d="M1104.76,-187.892C1136.69,-195.383 1168.58,-208.658 1192,-231.679 1284.33,-322.437 1343.24,-743.58 1357.58,-856.666"/>
<polygon fill="black" stroke="black" points="1354.12,-857.139 1358.83,-866.626 1361.06,-856.269 1354.12,-857.139"/>
</g>
<!-- github.com/BurntSushi/xgb/xf86vidmode -->
<g id="node83" class="node"><title>github.com/BurntSushi/xgb/xf86vidmode</title>
<ellipse fill="none" stroke="black" cx="979" cy="-103.679" rx="158.672" ry="18"/>
<text text-anchor="middle" x="979" y="-99.979" font-family="Times,serif" font-size="14.00">github.com/BurntSushi/xgb/xf86vidmode</text>
</g>
<!-- github.com/BurntSushi/xgb/xf86vidmode&#45;&gt;github.com/BurntSushi/xgb/xproto -->
<g id="edge84" class="edge"><title>github.com/BurntSushi/xgb/xf86vidmode&#45;&gt;github.com/BurntSushi/xgb/xproto</title>
<path fill="none" stroke="black" d="M1116.42,-112.716C1144.45,-120.465 1171.59,-133.178 1192,-153.679 1294.48,-256.612 1346.67,-734.982 1358.41,-856.532"/>
<polygon fill="black" stroke="black" points="1354.93,-856.919 1359.36,-866.542 1361.9,-856.255 1354.93,-856.919"/>
</g>
<!-- github.com/BurntSushi/xgb/xgbgen -->
<g id="node85" class="node"><title>github.com/BurntSushi/xgb/xgbgen</title>
<ellipse fill="none" stroke="black" cx="1669" cy="-1352.68" rx="137.276" ry="18"/>
<text text-anchor="middle" x="1669" y="-1348.98" font-family="Times,serif" font-size="14.00">github.com/BurntSushi/xgb/xgbgen</text>
</g>
<!-- github.com/BurntSushi/xgb/xgbgen&#45;&gt;fmt -->
<g id="edge86" class="edge"><title>github.com/BurntSushi/xgb/xgbgen&#45;&gt;fmt</title>
<path fill="none" stroke="black" d="M1679.26,-1334.58C1702.5,-1290.21 1766.87,-1173.81 1842,-1093.68 1853.62,-1081.29 1868.49,-1069.64 1881.27,-1060.61"/>
<polygon fill="black" stroke="black" points="1883.46,-1063.35 1889.72,-1054.8 1879.5,-1057.58 1883.46,-1063.35"/>
</g>
<!-- github.com/BurntSushi/xgb/xgbgen&#45;&gt;log -->
<g id="edge88" class="edge"><title>github.com/BurntSushi/xgb/xgbgen&#45;&gt;log</title>
<path fill="none" stroke="black" d="M1675.92,-1334.54C1694.01,-1281.1 1752.84,-1121.36 1842,-1015.68 1852.8,-1002.88 1867.47,-991.462 1880.33,-982.78"/>
<polygon fill="black" stroke="black" points="1882.41,-985.608 1888.88,-977.222 1878.59,-979.74 1882.41,-985.608"/>
</g>
<!-- github.com/BurntSushi/xgb/xgbgen&#45;&gt;os -->
<g id="edge90" class="edge"><title>github.com/BurntSushi/xgb/xgbgen&#45;&gt;os</title>
<path fill="none" stroke="black" d="M1673.96,-1334.42C1687.95,-1273.13 1739.8,-1071.18 1842,-938.679 1852.37,-925.23 1867.13,-913.483 1880.16,-904.664"/>
<polygon fill="black" stroke="black" points="1882.34,-907.42 1888.82,-899.042 1878.53,-901.548 1882.34,-907.42"/>
</g>
<!-- github.com/BurntSushi/xgb/xgbgen&#45;&gt;strconv -->
<g id="edge92" class="edge"><title>github.com/BurntSushi/xgb/xgbgen&#45;&gt;strconv</title>
<path fill="none" stroke="black" d="M1697.42,-1334.9C1742.46,-1305.69 1831.77,-1247.76 1878.65,-1217.36"/>
<polygon fill="black" stroke="black" points="1880.68,-1220.22 1887.17,-1211.84 1876.87,-1214.34 1880.68,-1220.22"/>
</g>
<!-- github.com/BurntSushi/xgb/xgbgen&#45;&gt;strings -->
<g id="edge94" class="edge"><title>github.com/BurntSushi/xgb/xgbgen&#45;&gt;strings</title>
<path fill="none" stroke="black" d="M1685.18,-1334.65C1714.08,-1300.8 1779.65,-1226.18 1842,-1170.68 1853.86,-1160.12 1867.83,-1149.45 1879.93,-1140.69"/>
<polygon fill="black" stroke="black" points="1882.24,-1143.34 1888.36,-1134.69 1878.18,-1137.64 1882.24,-1143.34"/>
</g>
<!-- github.com/BurntSushi/xgb/xgbgen&#45;&gt;flag -->
<g id="edge96" class="edge"><title>github.com/BurntSushi/xgb/xgbgen&#45;&gt;flag</title>
<path fill="none" stroke="black" d="M1675.91,-1370.87C1693.96,-1424.48 1752.69,-1584.69 1842,-1690.68 1852.79,-1703.48 1867.46,-1714.9 1880.33,-1723.58"/>
<polygon fill="black" stroke="black" points="1878.58,-1726.62 1888.87,-1729.14 1882.4,-1720.76 1878.58,-1726.62"/>
</g>
<!-- github.com/BurntSushi/xgb/xgbgen&#45;&gt;time -->
<g id="edge98" class="edge"><title>github.com/BurntSushi/xgb/xgbgen&#45;&gt;time</title>
<path fill="none" stroke="black" d="M1673.95,-1370.98C1687.9,-1432.42 1739.65,-1634.86 1842,-1767.68 1852.37,-1781.13 1867.12,-1792.88 1880.15,-1801.7"/>
<polygon fill="black" stroke="black" points="1878.53,-1804.81 1888.82,-1807.32 1882.33,-1798.94 1878.53,-1804.81"/>
</g>
<!-- bytes -->
<g id="node94" class="node"><title>bytes</title>
<ellipse fill="none" stroke="black" cx="1910" cy="-1275.68" rx="29.4969" ry="18"/>
<text text-anchor="middle" x="1910" y="-1271.98" font-family="Times,serif" font-size="14.00">bytes</text>
</g>
<!-- github.com/BurntSushi/xgb/xgbgen&#45;&gt;bytes -->
<g id="edge100" class="edge"><title>github.com/BurntSushi/xgb/xgbgen&#45;&gt;bytes</title>
<path fill="none" stroke="black" d="M1721.86,-1335.97C1767.93,-1321.13 1834,-1299.84 1874.06,-1286.94"/>
<polygon fill="black" stroke="black" points="1875.21,-1290.24 1883.66,-1283.84 1873.06,-1283.58 1875.21,-1290.24"/>
</g>
<!-- encoding/xml -->
<g id="node96" class="node"><title>encoding/xml</title>
<ellipse fill="none" stroke="black" cx="1910" cy="-1663.68" rx="59.5901" ry="18"/>
<text text-anchor="middle" x="1910" y="-1659.98" font-family="Times,serif" font-size="14.00">encoding/xml</text>
</g>
<!-- github.com/BurntSushi/xgb/xgbgen&#45;&gt;encoding/xml -->
<g id="edge102" class="edge"><title>github.com/BurntSushi/xgb/xgbgen&#45;&gt;encoding/xml</title>
<path fill="none" stroke="black" d="M1679.24,-1370.85C1702.44,-1415.4 1766.74,-1532.27 1842,-1612.68 1851.79,-1623.14 1863.91,-1633.07 1875.13,-1641.34"/>
<polygon fill="black" stroke="black" points="1873.32,-1644.34 1883.49,-1647.32 1877.39,-1638.65 1873.32,-1644.34"/>
</g>
<!-- io/ioutil -->
<g id="node98" class="node"><title>io/ioutil</title>
<ellipse fill="none" stroke="black" cx="1910" cy="-1585.68" rx="38.1938" ry="18"/>
<text text-anchor="middle" x="1910" y="-1581.98" font-family="Times,serif" font-size="14.00">io/ioutil</text>
</g>
<!-- github.com/BurntSushi/xgb/xgbgen&#45;&gt;io/ioutil -->
<g id="edge104" class="edge"><title>github.com/BurntSushi/xgb/xgbgen&#45;&gt;io/ioutil</title>
<path fill="none" stroke="black" d="M1685.17,-1370.82C1714.02,-1404.87 1779.55,-1479.93 1842,-1535.68 1853.59,-1546.02 1867.2,-1556.46 1879.11,-1565.1"/>
<polygon fill="black" stroke="black" points="1877.26,-1568.08 1887.44,-1571.05 1881.33,-1562.38 1877.26,-1568.08"/>
</g>
<!-- os/exec -->
<g id="node100" class="node"><title>os/exec</title>
<ellipse fill="none" stroke="black" cx="1910" cy="-1508.68" rx="37.0935" ry="18"/>
<text text-anchor="middle" x="1910" y="-1504.98" font-family="Times,serif" font-size="14.00">os/exec</text>
</g>
<!-- github.com/BurntSushi/xgb/xgbgen&#45;&gt;os/exec -->
<g id="edge106" class="edge"><title>github.com/BurntSushi/xgb/xgbgen&#45;&gt;os/exec</title>
<path fill="none" stroke="black" d="M1697.42,-1370.57C1742.46,-1399.97 1831.77,-1458.27 1878.65,-1488.87"/>
<polygon fill="black" stroke="black" points="1876.88,-1491.89 1887.17,-1494.43 1880.71,-1486.03 1876.88,-1491.89"/>
</g>
<!-- regexp -->
<g id="node102" class="node"><title>regexp</title>
<ellipse fill="none" stroke="black" cx="1910" cy="-1430.68" rx="34.394" ry="18"/>
<text text-anchor="middle" x="1910" y="-1426.98" font-family="Times,serif" font-size="14.00">regexp</text>
</g>
<!-- github.com/BurntSushi/xgb/xgbgen&#45;&gt;regexp -->
<g id="edge108" class="edge"><title>github.com/BurntSushi/xgb/xgbgen&#45;&gt;regexp</title>
<path fill="none" stroke="black" d="M1721.27,-1369.41C1766.13,-1384.05 1830.27,-1404.99 1870.76,-1418.2"/>
<polygon fill="black" stroke="black" points="1869.68,-1421.53 1880.27,-1421.3 1871.85,-1414.87 1869.68,-1421.53"/>
</g>
<!-- unicode -->
<g id="node104" class="node"><title>unicode</title>
<ellipse fill="none" stroke="black" cx="1910" cy="-1352.68" rx="38.1938" ry="18"/>
<text text-anchor="middle" x="1910" y="-1348.98" font-family="Times,serif" font-size="14.00">unicode</text>
</g>
<!-- github.com/BurntSushi/xgb/xgbgen&#45;&gt;unicode -->
<g id="edge110" class="edge"><title>github.com/BurntSushi/xgb/xgbgen&#45;&gt;unicode</title>
<path fill="none" stroke="black" d="M1806.26,-1352.68C1825.86,-1352.68 1844.85,-1352.68 1861.06,-1352.68"/>
<polygon fill="black" stroke="black" points="1861.29,-1356.18 1871.29,-1352.68 1861.29,-1349.18 1861.29,-1356.18"/>
</g>
<!-- github.com/BurntSushi/xgb/xinput -->
<g id="node105" class="node"><title>github.com/BurntSushi/xgb/xinput</title>
<ellipse fill="none" stroke="black" cx="979" cy="-25.679" rx="133.776" ry="18"/>
<text text-anchor="middle" x="979" y="-21.979" font-family="Times,serif" font-size="14.00">github.com/BurntSushi/xgb/xinput</text>
</g>
<!-- github.com/BurntSushi/xgb/xinput&#45;&gt;github.com/BurntSushi/xgb/xproto -->
<g id="edge112" class="edge"><title>github.com/BurntSushi/xgb/xinput&#45;&gt;github.com/BurntSushi/xgb/xproto</title>
<path fill="none" stroke="black" d="M1104.65,-31.9847C1136.86,-39.4307 1168.93,-52.9096 1192,-76.679 1304.02,-192.097 1349.52,-726.278 1359.04,-856.16"/>
<polygon fill="black" stroke="black" points="1355.57,-856.742 1359.78,-866.465 1362.55,-856.24 1355.57,-856.742"/>
</g>
<!-- github.com/BurntSushi/xgb/xprint -->
<g id="node107" class="node"><title>github.com/BurntSushi/xgb/xprint</title>
<ellipse fill="none" stroke="black" cx="979" cy="-1732.68" rx="131.877" ry="18"/>
<text text-anchor="middle" x="979" y="-1728.98" font-family="Times,serif" font-size="14.00">github.com/BurntSushi/xgb/xprint</text>
</g>
<!-- github.com/BurntSushi/xgb/xprint&#45;&gt;github.com/BurntSushi/xgb/xproto -->
<g id="edge114" class="edge"><title>github.com/BurntSushi/xgb/xprint&#45;&gt;github.com/BurntSushi/xgb/xproto</title>
<path fill="none" stroke="black" d="M1103.5,-1726.58C1136.09,-1719.19 1168.63,-1705.69 1192,-1681.68 1302.59,-1568.04 1349.1,-1042.09 1358.95,-913.232"/>
<polygon fill="black" stroke="black" points="1362.46,-913.231 1359.71,-902.997 1355.48,-912.707 1362.46,-913.231"/>
</g>
<!-- github.com/BurntSushi/xgb/xselinux -->
<g id="node109" class="node"><title>github.com/BurntSushi/xgb/xselinux</title>
<ellipse fill="none" stroke="black" cx="979" cy="-1654.68" rx="141.075" ry="18"/>
<text text-anchor="middle" x="979" y="-1650.98" font-family="Times,serif" font-size="14.00">github.com/BurntSushi/xgb/xselinux</text>
</g>
<!-- github.com/BurntSushi/xgb/xselinux&#45;&gt;github.com/BurntSushi/xgb/xproto -->
<g id="edge116" class="edge"><title>github.com/BurntSushi/xgb/xselinux&#45;&gt;github.com/BurntSushi/xgb/xproto</title>
<path fill="none" stroke="black" d="M1108.93,-1647.53C1139.55,-1640.03 1169.75,-1626.95 1192,-1604.68 1292.97,-1503.6 1346.11,-1034.12 1358.27,-913.164"/>
<polygon fill="black" stroke="black" points="1361.79,-913.173 1359.29,-902.876 1354.82,-912.482 1361.79,-913.173"/>
</g>
<!-- github.com/BurntSushi/xgb/xtest -->
<g id="node111" class="node"><title>github.com/BurntSushi/xgb/xtest</title>
<ellipse fill="none" stroke="black" cx="979" cy="-1577.68" rx="128.077" ry="18"/>
<text text-anchor="middle" x="979" y="-1573.98" font-family="Times,serif" font-size="14.00">github.com/BurntSushi/xgb/xtest</text>
</g>
<!-- github.com/BurntSushi/xgb/xtest&#45;&gt;github.com/BurntSushi/xgb/xproto -->
<g id="edge118" class="edge"><title>github.com/BurntSushi/xgb/xtest&#45;&gt;github.com/BurntSushi/xgb/xproto</title>
<path fill="none" stroke="black" d="M1099.73,-1571.52C1133.29,-1564.26 1167.32,-1550.84 1192,-1526.68 1282.87,-1437.73 1342.65,-1025.17 1357.42,-912.931"/>
<polygon fill="black" stroke="black" points="1360.93,-913.109 1358.75,-902.741 1353.99,-912.206 1360.93,-913.109"/>
</g>
<!-- github.com/BurntSushi/xgb/xv -->
<g id="node113" class="node"><title>github.com/BurntSushi/xgb/xv</title>
<ellipse fill="none" stroke="black" cx="549" cy="-491.679" rx="120.479" ry="18"/>
<text text-anchor="middle" x="549" y="-487.979" font-family="Times,serif" font-size="14.00">github.com/BurntSushi/xgb/xv</text>
</g>
<!-- github.com/BurntSushi/xgb/xv&#45;&gt;github.com/BurntSushi/xgb/shm -->
<g id="edge120" class="edge"><title>github.com/BurntSushi/xgb/xv&#45;&gt;github.com/BurntSushi/xgb/shm</title>
<path fill="none" stroke="black" d="M669.506,-491.679C723.291,-491.679 787.039,-491.679 842.585,-491.679"/>
<polygon fill="black" stroke="black" points="842.857,-495.179 852.857,-491.679 842.857,-488.179 842.857,-495.179"/>
</g>
<!-- github.com/BurntSushi/xgb/xvmc -->
<g id="node115" class="node"><title>github.com/BurntSushi/xgb/xvmc</title>
<ellipse fill="none" stroke="black" cx="166" cy="-491.679" rx="131.077" ry="18"/>
<text text-anchor="middle" x="166" y="-487.979" font-family="Times,serif" font-size="14.00">github.com/BurntSushi/xgb/xvmc</text>
</g>
<!-- github.com/BurntSushi/xgb/xvmc&#45;&gt;github.com/BurntSushi/xgb/xv -->
<g id="edge122" class="edge"><title>github.com/BurntSushi/xgb/xvmc&#45;&gt;github.com/BurntSushi/xgb/xv</title>
<path fill="none" stroke="black" d="M297.319,-491.679C336.388,-491.679 379.22,-491.679 418.252,-491.679"/>
<polygon fill="black" stroke="black" points="418.619,-495.179 428.619,-491.679 418.619,-488.179 418.619,-495.179"/>
</g>
</g>
</svg>
